<?xml version="1.0" standalone="no"?>
<!DOCTYPE svg PUBLIC "-//W3C//DTD SVG 20010904//EN"
 "http://www.w3.org/TR/2001/REC-SVG-20010904/DTD/svg10.dtd">
<svg version="1.0" xmlns="http://www.w3.org/2000/svg"
 width="1571.000000pt" height="654.000000pt" viewBox="0 0 1571.000000 654.000000"
 preserveAspectRatio="xMidYMid meet">

<g transform="translate(0.000000,654.000000) scale(0.100000,-0.100000)"
fill="#000000" stroke="none">
<path d="M0 3270 l0 -3270 7855 0 7855 0 0 3270 0 3270 -7855 0 -7855 0 0
-3270z m3358 3015 c74 -219 109 -486 92 -700 -20 -242 -69 -406 -200 -670
-110 -222 -170 -315 -279 -428 -202 -210 -432 -324 -766 -381 -104 -18 -182
-53 -213 -96 -53 -72 -67 -234 -48 -575 8 -144 6 -177 -15 -330 -20 -143 -24
-211 -24 -430 0 -295 12 -409 75 -725 64 -323 65 -331 65 -745 0 -347 -2 -383
-18 -413 -37 -68 -114 -89 -194 -53 -56 26 -76 66 -70 140 2 31 9 137 16 236
6 99 19 277 27 395 13 173 13 239 5 335 -25 269 -107 526 -267 848 -166 332
-228 419 -321 452 -30 10 -102 20 -188 26 -81 4 -174 17 -220 29 -261 67 -464
243 -646 561 -88 155 -126 284 -136 469 -5 91 -3 108 11 123 25 25 37 22 94
-27 94 -81 170 -117 382 -180 139 -42 441 -176 568 -251 216 -128 309 -257
320 -442 4 -77 3 -83 -21 -107 -14 -14 -33 -26 -42 -26 -9 0 -56 38 -104 84
-107 101 -251 198 -516 346 -110 62 -205 117 -212 122 -6 5 -24 8 -40 6 -22
-2 -29 -9 -31 -29 -6 -49 85 -121 352 -282 276 -167 545 -397 664 -570 30 -43
76 -125 102 -182 39 -82 55 -106 74 -111 39 -10 64 11 70 59 21 157 47 429 56
577 15 269 63 460 182 730 66 150 188 381 254 480 42 64 162 187 341 348 156
140 394 424 416 497 8 24 0 38 -30 54 -19 10 -27 7 -60 -21 -250 -215 -603
-531 -658 -589 -39 -41 -96 -113 -127 -159 -68 -103 -198 -337 -224 -403 -34
-87 -86 -118 -144 -87 -21 11 -125 181 -149 243 -24 64 -19 277 8 382 57 213
143 326 441 577 265 222 483 370 725 493 171 86 221 120 306 204 66 67 171
199 210 266 17 29 27 35 48 33 23 -3 29 -13 59 -103z m1995 -732 c4 -3 63 -5
131 -4 127 2 238 -12 256 -34 7 -9 -6 -12 -58 -10 -49 1 -66 4 -64 14 1 7 -2
9 -9 6 -6 -4 -32 -9 -57 -10 -56 -4 -155 -23 -190 -36 -26 -10 -57 5 -46 22 8
14 -10 11 -31 -5 -17 -12 -18 -16 -5 -31 13 -15 12 -19 -5 -31 -24 -18 -28
-18 -55 6 l-22 19 -28 -29 c-19 -20 -38 -30 -58 -30 -16 0 -35 -7 -42 -15 -7
-8 -35 -22 -62 -30 -27 -8 -64 -23 -81 -34 -18 -11 -49 -22 -70 -26 -40 -8
-95 -44 -67 -45 9 0 83 23 165 50 83 28 215 66 295 84 131 30 167 35 363 41
175 6 217 10 217 21 0 8 -16 22 -35 31 -19 9 -35 21 -35 26 0 11 79 5 145 -12
198 -51 253 -83 335 -195 42 -56 54 -83 71 -155 11 -47 27 -96 35 -108 17 -27
18 -106 3 -205 -13 -85 -27 -122 -77 -201 -72 -114 -99 -143 -199 -219 -100
-75 -102 -76 -137 -66 -42 13 -43 23 -17 93 10 28 26 88 35 135 9 47 23 101
31 120 24 64 42 174 40 250 -2 75 -37 214 -55 225 -6 4 -21 28 -35 55 -14 27
-30 52 -36 55 -25 16 -129 34 -194 34 -117 0 -406 -69 -728 -174 -186 -61
-413 -170 -572 -275 -174 -115 -411 -354 -383 -387 8 -10 0 -25 -28 -59 -68
-81 -84 -107 -123 -209 -29 -74 -40 -121 -44 -181 -7 -91 -4 -97 72 -177 38
-39 59 -52 116 -69 50 -15 79 -30 101 -54 23 -24 42 -34 80 -39 27 -4 56 -13
64 -21 31 -26 153 -77 198 -82 33 -3 55 -12 74 -31 15 -15 46 -33 70 -40 24
-7 53 -17 66 -22 13 -5 38 -9 55 -9 56 0 185 -89 320 -221 67 -65 125 -119
128 -119 4 0 14 -15 22 -33 9 -18 26 -42 38 -53 33 -30 88 -147 110 -235 17
-70 18 -87 7 -139 -10 -52 -10 -61 5 -78 11 -12 17 -36 17 -69 0 -65 -75 -231
-118 -261 -15 -11 -48 -49 -73 -83 -24 -34 -69 -96 -100 -138 -30 -42 -61 -92
-69 -111 -7 -19 -25 -48 -39 -63 -32 -36 -164 -139 -251 -197 -36 -24 -82 -59
-102 -77 -21 -18 -65 -46 -99 -63 -34 -18 -88 -50 -121 -72 -53 -36 -62 -39
-82 -28 -21 11 -36 6 -133 -44 -60 -31 -115 -56 -122 -56 -6 0 -14 -7 -17 -15
-3 -8 -25 -20 -48 -27 -22 -6 -102 -35 -176 -64 -212 -83 -409 -106 -503 -58
-67 34 -169 119 -261 215 -164 173 -204 285 -192 539 7 160 35 255 100 343 15
21 17 30 8 39 -24 24 -13 59 36 106 26 26 53 60 60 75 7 16 21 31 32 34 20 5
24 15 21 42 -2 7 2 10 8 6 6 -3 11 -2 11 4 0 5 10 11 22 13 15 2 24 13 30 36
6 23 14 32 29 32 12 0 26 12 37 33 9 17 43 57 74 88 31 31 63 73 72 93 8 20
19 36 23 35 21 -4 32 3 38 21 4 11 19 27 35 35 16 8 65 49 109 90 45 41 85 75
90 75 5 0 28 16 51 35 23 19 44 35 46 35 6 0 -71 -83 -143 -154 -28 -28 -68
-71 -89 -96 l-38 -45 54 50 c51 47 53 41 4 -15 -34 -39 -62 -86 -45 -75 22 13
71 70 126 148 49 69 91 106 65 57 -11 -20 -10 -22 4 -17 22 9 20 -1 -7 -37
-13 -17 -36 -48 -51 -69 -23 -30 -25 -36 -10 -30 14 5 10 -4 -14 -34 -18 -23
-37 -55 -43 -72 -9 -26 -16 -31 -43 -31 -40 0 -65 -25 -63 -62 2 -27 17 -41
17 -16 0 6 2 9 5 6 3 -3 -5 -26 -19 -51 -23 -41 -26 -77 -7 -77 4 0 25 18 46
41 81 83 107 67 33 -20 -97 -113 -120 -143 -191 -252 -41 -63 -88 -142 -106
-176 -31 -63 -31 -63 -11 -80 26 -23 26 -74 0 -98 -11 -10 -29 -43 -41 -74
-19 -52 -20 -63 -9 -146 13 -106 36 -185 58 -202 27 -22 85 -14 315 42 123 30
230 55 239 55 20 0 170 74 299 147 109 62 218 133 323 210 32 24 63 43 69 43
6 0 36 20 66 43 31 24 66 49 78 56 12 6 43 39 69 74 26 34 72 88 101 119 62
66 115 171 139 273 9 39 22 93 30 121 20 71 18 103 -10 154 -14 25 -34 64 -46
88 -15 30 -38 54 -77 79 -64 41 -278 141 -391 182 -42 16 -118 47 -168 70 -51
22 -98 41 -106 41 -7 0 -29 13 -48 28 -19 16 -73 49 -120 73 -46 24 -98 55
-115 70 -16 14 -37 28 -45 31 -29 10 -195 155 -244 212 -26 31 -57 80 -68 109
-11 29 -37 75 -58 102 -20 28 -41 66 -45 85 -4 19 -14 46 -22 59 -13 20 -14
33 -5 75 6 28 16 79 23 114 13 66 20 75 36 40 9 -20 13 -16 46 47 20 38 37 79
37 91 0 13 21 44 53 76 29 29 63 65 75 79 l23 27 -36 4 c-33 4 -38 1 -69 -41
-18 -26 -44 -66 -59 -91 -31 -53 -86 -119 -87 -105 0 6 21 40 48 77 53 76 99
146 124 194 25 47 215 191 231 175 5 -5 -4 -27 -22 -51 -17 -24 -31 -47 -31
-52 0 -22 31 -3 85 52 33 34 88 82 122 108 34 26 63 52 63 59 0 29 -25 21 -81
-28 -39 -34 -64 -48 -70 -42 -6 6 -3 18 9 34 11 13 26 38 35 55 19 36 122 107
192 131 27 9 110 49 185 89 74 40 153 76 175 80 22 4 65 19 95 34 30 15 78 35
105 43 28 8 70 24 95 35 25 11 72 23 105 27 33 3 74 10 90 15 121 37 204 60
225 63 43 7 86 7 93 0z m8930 -5 l48 1 30 -67 30 -66 -32 -86 c-18 -47 -65
-148 -105 -225 -43 -83 -81 -173 -94 -219 -12 -44 -23 -83 -26 -87 -2 -4 110
-9 248 -12 163 -3 290 -11 358 -21 58 -9 132 -21 165 -25 64 -9 109 -25 138
-50 9 -8 27 -19 40 -25 15 -8 22 -21 22 -41 l0 -30 -365 -6 c-480 -9 -710 -24
-728 -47 -24 -30 -112 -212 -172 -352 -32 -74 -119 -265 -195 -425 -158 -334
-176 -376 -174 -413 2 -35 -61 -181 -98 -229 -44 -56 -45 -59 -53 -134 -6 -56
-17 -85 -58 -157 -27 -48 -53 -103 -57 -122 -4 -19 -15 -46 -25 -60 -10 -14
-21 -36 -25 -50 -4 -14 -21 -49 -36 -79 -16 -30 -29 -62 -29 -71 0 -10 -7 -35
-16 -55 -34 -83 -57 -191 -57 -273 0 -46 5 -88 11 -94 30 -30 245 174 474 448
139 168 370 463 453 581 31 43 79 111 108 152 29 40 87 120 129 178 111 149
299 448 323 513 25 69 98 201 128 233 12 13 37 43 56 67 19 23 59 58 90 77 31
20 65 44 77 54 31 28 137 68 205 78 72 10 89 0 147 -87 40 -60 85 -200 72
-222 -4 -7 -29 -16 -56 -21 -106 -20 -270 -129 -319 -213 -30 -52 -75 -200
-76 -252 -1 -21 2 -91 6 -154 3 -63 8 -146 10 -185 1 -38 8 -92 14 -120 8 -29
10 -74 6 -107 l-6 -58 78 29 c43 16 120 45 172 64 133 51 275 147 429 292 79
74 107 89 118 61 23 -59 -351 -477 -506 -566 -41 -24 -110 -66 -154 -93 l-79
-51 8 -85 c9 -110 9 -103 -4 -193 -5 -42 -20 -103 -32 -135 -12 -32 -24 -76
-28 -98 -4 -22 -13 -51 -21 -65 -29 -55 -175 -258 -225 -315 -131 -147 -159
-172 -200 -180 -22 -4 -65 -22 -95 -40 -68 -42 -224 -85 -307 -85 -155 0 -300
85 -357 209 -29 66 -27 224 4 322 50 154 203 327 500 567 52 42 114 94 138
115 23 21 62 46 85 56 23 10 51 28 62 41 11 12 34 28 52 35 41 17 43 39 21
220 -9 77 -20 189 -24 248 l-7 108 -51 -58 c-28 -31 -62 -73 -76 -94 -14 -21
-74 -101 -135 -179 -60 -78 -149 -206 -196 -284 -115 -191 -321 -512 -356
-558 -55 -72 -323 -364 -375 -409 -141 -122 -256 -181 -351 -182 -80 0 -136
24 -176 74 -22 26 -40 39 -57 39 -47 0 -89 104 -100 244 -3 45 -8 87 -10 95
-3 9 -29 -11 -77 -58 -86 -86 -166 -129 -259 -138 -80 -7 -115 7 -190 76 -68
62 -111 143 -134 251 -15 73 -15 79 9 210 14 74 24 136 23 137 -2 2 -38 -39
-82 -89 -113 -132 -214 -232 -270 -267 -127 -81 -280 -112 -362 -74 -58 27
-144 123 -188 209 l-39 77 0 192 0 192 -60 -54 c-78 -71 -214 -152 -290 -173
l-60 -17 -70 -134 c-86 -164 -119 -212 -212 -312 -40 -43 -73 -82 -73 -87 0
-10 -222 -208 -260 -232 -43 -27 -227 -70 -249 -58 -11 5 -59 10 -108 10 -71
0 -98 5 -139 24 -95 44 -135 75 -155 120 -10 24 -26 49 -35 57 -43 36 -94 227
-94 354 0 56 34 318 47 359 5 18 3 17 -25 -3 -17 -12 -34 -32 -38 -44 -4 -12
-14 -33 -24 -47 -10 -14 -25 -50 -33 -80 -22 -73 -97 -187 -187 -284 -41 -43
-75 -87 -75 -98 -1 -10 -41 -59 -88 -106 -48 -48 -87 -91 -87 -96 0 -40 -245
-278 -332 -322 -89 -45 -222 -84 -287 -84 -74 0 -170 36 -218 82 -74 71 -103
239 -69 407 20 98 31 126 121 321 37 80 82 185 101 233 18 48 58 131 89 183
31 52 85 160 120 238 59 134 143 291 228 429 37 61 39 82 6 92 -10 4 -42 26
-71 51 -76 65 -86 61 -176 -71 -112 -164 -185 -258 -309 -401 -104 -121 -293
-304 -312 -304 -5 0 -14 -14 -21 -31 -8 -17 -82 -106 -167 -197 -84 -91 -153
-169 -153 -173 0 -12 -177 -137 -239 -169 -101 -51 -307 -93 -318 -65 -3 10
-19 12 -58 8 -54 -6 -266 32 -438 79 -43 11 -80 18 -83 16 -30 -31 -117 -205
-148 -298 -21 -63 -65 -179 -97 -257 -32 -78 -59 -144 -59 -147 0 -14 -104
-243 -122 -268 -12 -17 -16 -36 -13 -51 8 -31 -20 -207 -46 -284 -28 -87 -93
-157 -162 -178 -28 -8 -63 -15 -79 -15 -16 0 -46 -9 -68 -20 -22 -11 -49 -20
-60 -20 -25 0 -72 23 -89 44 -10 12 -18 13 -32 5 -30 -16 -42 30 -42 161 -1
137 11 187 90 380 75 183 99 253 134 400 18 77 60 200 108 320 43 107 86 220
96 250 10 30 37 102 60 160 23 58 50 132 60 165 22 78 238 622 278 700 57 113
134 311 192 490 31 99 79 227 105 285 27 58 54 125 60 150 16 58 33 91 71 135
30 34 33 35 86 31 45 -4 65 -12 110 -46 30 -23 76 -71 102 -107 l48 -65 6
-101 c6 -95 5 -101 -17 -128 -29 -34 -42 -95 -25 -115 19 -23 5 -112 -34 -209
-20 -49 -34 -91 -32 -94 3 -2 33 22 68 55 173 161 243 218 333 272 55 33 109
63 122 67 30 9 90 -12 102 -36 6 -10 32 -30 58 -43 66 -33 91 -65 116 -141 19
-58 21 -78 14 -167 -4 -55 -15 -128 -24 -162 -9 -33 -34 -124 -54 -201 -20
-77 -42 -151 -48 -165 -40 -95 -72 -157 -134 -259 -114 -187 -115 -189 -45
-148 130 76 200 147 439 437 74 91 165 196 202 233 101 104 235 286 290 396
27 53 27 53 8 75 -48 51 -86 130 -98 203 l-13 75 35 89 c45 111 67 144 127
189 130 98 297 96 475 -7 102 -59 95 -173 -19 -312 -71 -88 -111 -162 -107
-199 4 -35 49 -57 143 -72 76 -12 118 -8 171 17 50 24 101 5 168 -63 50 -50
54 -58 54 -103 1 -44 -7 -61 -90 -192 -50 -79 -116 -180 -148 -224 -31 -44
-66 -95 -76 -114 -10 -18 -30 -46 -44 -61 -14 -15 -38 -61 -54 -101 -16 -41
-38 -86 -48 -101 -24 -34 -79 -153 -173 -373 -40 -93 -87 -197 -103 -230 -17
-33 -38 -90 -46 -127 -9 -38 -22 -83 -30 -102 -26 -62 -5 -65 76 -11 140 92
256 185 328 262 103 110 303 363 542 683 112 151 229 305 259 342 30 36 66 82
82 102 33 43 112 98 141 100 18 1 22 9 27 61 7 74 22 120 67 210 78 158 182
279 270 317 26 10 56 23 67 29 41 19 148 37 183 32 20 -4 47 -12 62 -20 14 -7
44 -13 67 -13 30 0 50 -7 71 -25 17 -14 36 -25 44 -25 7 0 19 -9 26 -20 7 -11
18 -20 25 -20 15 0 122 -115 163 -175 29 -42 47 -117 59 -245 4 -41 12 -81 17
-88 6 -6 8 -26 4 -44 -3 -17 -1 -46 5 -63 14 -39 -3 -331 -21 -365 -18 -34 -6
-34 60 1 67 35 99 62 286 236 121 112 121 112 142 187 12 41 22 86 22 100 0
15 6 29 14 32 22 8 41 80 29 106 -9 19 -4 36 32 103 24 44 53 118 65 165 23
90 30 100 72 100 33 0 64 -13 150 -63 69 -40 138 -116 138 -153 0 -24 -36
-184 -60 -264 -11 -36 -25 -85 -31 -110 -6 -25 -44 -109 -85 -187 -50 -97 -74
-154 -74 -177 0 -19 -11 -70 -24 -113 -39 -125 -46 -156 -55 -255 -10 -108 -4
-228 13 -227 18 1 143 148 208 244 33 48 99 142 148 208 49 66 124 179 167
249 43 71 147 234 231 363 l154 234 46 7 c52 8 168 -24 195 -54 8 -9 25 -43
37 -75 26 -69 20 -143 -16 -222 -14 -28 -24 -69 -24 -95 0 -25 -9 -63 -20 -85
l-19 -40 5 35 c5 40 7 43 -47 -79 -32 -70 -32 -71 -21 -71 5 0 19 22 32 50 13
27 25 48 27 46 2 -2 -30 -99 -72 -215 -135 -381 -171 -537 -149 -650 8 -37 19
-39 45 -8 53 60 351 462 392 529 131 210 254 458 342 688 34 91 88 219 120
285 31 66 86 197 122 290 54 141 91 230 170 413 6 15 -42 13 -307 -14 -80 -8
-197 -19 -260 -24 -63 -5 -129 -12 -146 -15 -28 -6 -32 -4 -38 21 -5 18 -3 30
6 35 10 7 11 12 1 28 -9 15 -10 35 -2 83 13 79 41 108 102 108 23 1 62 5 87
11 25 6 119 14 210 19 91 5 197 16 235 24 39 9 111 17 162 19 89 3 123 14 123
41 0 7 18 50 41 96 22 46 47 113 55 150 9 38 42 116 82 190 36 69 75 157 87
195 l22 70 81 1 c45 0 85 4 89 8 5 4 24 5 43 1 19 -4 57 -7 83 -7z m-10123
-962 c0 -2 -8 -10 -17 -17 -16 -13 -17 -12 -4 4 13 16 21 21 21 13z m-717
-215 c-17 -30 -33 -41 -33 -22 0 11 41 63 46 58 3 -2 -3 -18 -13 -36z m-25
-111 c-2 -14 -7 -25 -13 -24 -15 1 -29 49 -21 70 7 18 8 18 22 -1 8 -11 14
-31 12 -45z m8180 -2414 c88 -35 95 -37 117 -22 14 9 27 27 31 41 8 33 44 35
45 3 0 -13 6 -103 12 -200 11 -161 11 -178 -4 -178 -10 0 -20 16 -28 43 -36
120 -116 217 -219 265 -78 36 -208 37 -297 2 -109 -43 -190 -148 -232 -302
-27 -97 -24 -351 4 -435 43 -129 125 -219 240 -264 46 -18 78 -22 158 -22 148
0 195 20 308 135 95 97 131 108 73 23 -46 -68 -132 -148 -194 -179 -182 -92
-445 -69 -597 53 -271 218 -287 663 -32 915 120 120 246 168 422 162 88 -2
111 -7 193 -40z m-4918 10 c0 -9 -19 -15 -56 -20 -64 -7 -109 -28 -124 -55 -6
-13 -10 -185 -10 -484 0 -443 1 -466 19 -488 19 -24 22 -24 203 -24 171 0 186
2 230 24 60 29 107 83 144 166 27 60 54 85 54 49 0 -9 -21 -81 -46 -160 l-46
-144 -449 0 c-392 0 -449 2 -449 15 0 11 11 15 38 15 56 0 105 29 119 70 17
49 17 901 0 950 -14 41 -63 70 -119 70 -27 0 -38 4 -38 15 0 13 36 15 265 15
217 0 265 -2 265 -14z m1072 -365 c96 -46 108 -92 108 -424 0 -284 5 -297 88
-237 42 30 42 30 42 7 0 -26 -68 -96 -117 -121 -69 -35 -153 -4 -153 56 0 46
-13 48 -60 12 -69 -54 -138 -84 -193 -84 -102 0 -174 70 -184 178 -12 134 75
216 336 317 l86 34 0 75 c-1 60 -5 82 -21 103 -41 55 -142 67 -195 24 -18 -14
-24 -33 -30 -85 -8 -79 -27 -106 -75 -106 -40 0 -74 38 -74 82 0 71 74 156
160 183 71 23 223 15 282 -14z m1868 -47 l0 -76 58 53 c79 73 147 102 222 97
44 -3 67 -11 94 -32 79 -59 96 -145 96 -481 0 -228 3 -239 70 -250 25 -4 40
-12 40 -21 0 -12 -33 -14 -190 -14 -162 0 -190 2 -190 15 0 8 8 15 19 15 36 0
78 22 90 46 14 32 15 484 1 535 -6 19 -22 46 -36 60 -53 50 -170 22 -247 -59
l-29 -30 4 -250 c3 -284 4 -286 84 -298 28 -4 44 -11 44 -20 0 -11 -35 -14
-195 -14 -159 0 -195 3 -195 14 0 8 15 16 38 20 21 3 47 15 58 27 18 20 19 39
19 309 0 329 1 324 -74 318 -35 -2 -46 0 -46 12 0 15 203 99 243 100 21 0 22
-4 22 -76z m2852 47 c96 -46 108 -92 108 -424 0 -284 5 -297 88 -237 42 30 42
30 42 7 0 -26 -68 -96 -117 -121 -69 -35 -153 -4 -153 56 0 46 -13 48 -60 12
-69 -54 -138 -84 -193 -84 -102 0 -174 70 -184 178 -12 134 75 216 336 317
l86 34 0 75 c-1 60 -5 82 -21 103 -41 55 -142 67 -195 24 -18 -14 -24 -33 -30
-85 -8 -79 -27 -106 -75 -106 -40 0 -74 38 -74 82 0 71 74 156 160 183 71 23
223 15 282 -14z m570 -58 l3 -88 18 33 c25 46 85 110 118 128 53 27 135 9 159
-35 28 -53 -7 -131 -59 -131 -15 0 -48 13 -72 30 -24 16 -49 30 -55 30 -15 0
-78 -70 -98 -109 -13 -24 -16 -67 -16 -215 0 -270 11 -305 103 -321 22 -4 37
-13 37 -21 0 -11 -36 -14 -200 -14 -166 0 -200 2 -200 14 0 9 15 17 40 21 25
4 47 16 60 32 19 24 20 41 20 297 0 320 -1 321 -75 321 -82 0 -63 23 60 71
158 62 154 63 157 -43z m906 52 c89 -48 140 -127 149 -227 l6 -58 -267 0 -266
0 0 -43 c0 -98 60 -217 135 -269 98 -67 224 -60 300 16 23 24 48 60 55 80 6
20 17 35 23 33 39 -13 -4 -135 -75 -213 -75 -82 -114 -99 -223 -99 -108 0
-156 19 -228 92 -107 107 -143 289 -92 468 30 106 118 201 218 237 80 28 196
21 265 -17z m-5568 1 c0 -7 -15 -17 -32 -22 -56 -16 -51 -50 48 -313 48 -128
90 -228 94 -224 4 4 42 83 84 175 l76 167 -24 65 c-36 94 -52 115 -102 128
-24 7 -44 18 -44 25 0 10 41 13 190 13 149 0 190 -3 190 -13 0 -7 -20 -18 -45
-25 -79 -21 -78 -29 26 -295 50 -128 92 -233 93 -234 1 -2 42 100 90 226 101
264 104 290 44 305 -21 5 -38 15 -38 23 0 10 28 13 125 13 103 0 125 -3 125
-15 0 -8 -16 -22 -37 -31 -45 -22 -59 -52 -214 -456 -97 -253 -117 -298 -134
-298 -17 0 -35 37 -114 240 -52 131 -97 237 -101 235 -4 -2 -55 -110 -115
-240 -81 -178 -112 -235 -126 -235 -12 0 -25 20 -45 73 -124 326 -237 613
-251 637 -9 16 -34 36 -55 45 -21 8 -38 22 -38 30 0 13 25 15 165 15 132 0
165 -3 165 -14z"/>
<path d="M5854 5418 c-10 -16 42 -58 72 -58 31 0 30 7 -3 42 -28 29 -57 36
-69 16z"/>
<path d="M5038 5413 c6 -2 18 -2 25 0 6 3 1 5 -13 5 -14 0 -19 -2 -12 -5z"/>
<path d="M4910 5382 c-36 -13 -41 -17 -22 -20 27 -4 92 16 92 29 0 12 -17 10
-70 -9z"/>
<path d="M4795 5339 c-11 -17 -2 -18 30 -4 l30 13 -27 1 c-15 1 -30 -4 -33
-10z"/>
<path d="M5105 5260 c-3 -5 -1 -10 4 -10 6 0 11 5 11 10 0 6 -2 10 -4 10 -3 0
-8 -4 -11 -10z"/>
<path d="M4750 5240 c-13 -8 -12 -10 3 -10 9 0 17 5 17 10 0 12 -1 12 -20 0z"/>
<path d="M4300 5155 c-10 -12 -9 -15 8 -15 11 0 25 7 32 15 10 12 9 15 -8 15
-11 0 -25 -7 -32 -15z"/>
<path d="M3795 4769 c-4 -6 -5 -13 -2 -16 7 -7 27 6 27 18 0 12 -17 12 -25 -2z"/>
<path d="M3541 4294 c0 -11 3 -14 6 -6 3 7 2 16 -1 19 -3 4 -6 -2 -5 -13z"/>
<path d="M3413 2537 c-85 -125 -96 -171 -22 -97 53 54 84 111 66 122 -18 11
-20 10 -44 -25z"/>
<path d="M8262 4219 c-52 -26 -85 -68 -101 -130 -14 -52 -8 -73 37 -121 l25
-27 17 22 c26 34 101 177 111 210 10 35 -4 67 -29 67 -9 0 -36 -10 -60 -21z"/>
<path d="M7127 3686 c-35 -16 -96 -75 -271 -266 -160 -175 -205 -231 -304
-383 -63 -97 -272 -492 -272 -514 0 -19 114 -58 171 -58 46 1 66 7 114 35 63
39 184 164 256 268 91 130 307 577 323 667 4 22 21 78 37 123 25 73 28 87 16
110 -14 31 -31 35 -70 18z"/>
<path d="M10245 3681 c-11 -5 -25 -6 -32 -4 -7 3 -31 -6 -54 -19 -31 -17 -43
-20 -46 -10 -13 38 -31 -4 -92 -218 -42 -150 -48 -230 -22 -304 37 -106 119
-219 180 -250 38 -19 138 -29 147 -14 7 12 19 52 70 237 30 109 46 216 47 316
1 62 -3 79 -38 150 -52 105 -100 139 -160 116z"/>
<path d="M9820 2773 c-14 -32 -27 -85 -31 -118 -8 -84 -38 -268 -55 -345 -16
-67 -11 -163 9 -187 33 -43 191 21 286 116 89 89 174 223 199 312 10 36 9 37
-26 47 -19 6 -39 9 -43 6 -16 -10 -82 27 -157 87 -42 34 -86 66 -98 71 -13 6
-28 24 -35 39 -6 16 -15 29 -18 29 -4 0 -18 -26 -31 -57z"/>
<path d="M14475 2531 c-22 -10 -53 -29 -70 -43 -16 -14 -57 -42 -90 -63 -33
-21 -91 -69 -130 -106 -38 -37 -99 -89 -134 -116 -53 -40 -75 -66 -126 -152
-50 -83 -65 -116 -74 -173 -6 -38 -9 -73 -6 -79 15 -24 161 2 256 44 87 39
153 113 260 292 84 139 189 363 189 403 0 17 -29 14 -75 -7z"/>
<path d="M7619 1131 c-140 -60 -189 -111 -189 -199 0 -43 5 -57 31 -86 40 -47
82 -54 143 -27 26 11 60 30 76 41 l30 21 0 140 c0 105 -3 139 -12 138 -7 0
-43 -13 -79 -28z"/>
<path d="M12339 1131 c-140 -60 -189 -111 -189 -199 0 -43 5 -57 31 -86 40
-47 82 -54 143 -27 26 11 60 30 76 41 l30 21 0 140 c0 105 -3 139 -12 138 -7
0 -43 -13 -79 -28z"/>
<path d="M13680 1438 c-52 -27 -98 -87 -107 -141 l-6 -37 177 0 176 0 0 33
c-1 122 -131 201 -240 145z"/>
</g>
</svg>
